<svg width="93" height="94" viewBox="0 0 93 94" fill="none" xmlns="http://www.w3.org/2000/svg">
<rect x="1" y="1.4248" width="91" height="91" rx="22.25" fill="white" fill-opacity="0.86"/>
<rect x="1" y="1.4248" width="91" height="91" rx="22.25" stroke="#E9EBF1" stroke-width="2"/>
<path d="M53.3184 25.9629C54.1209 25.9629 54.7715 26.6145 54.7715 27.417V28.9814H57.8486C61.1514 28.9814 63.8291 31.6592 63.8291 34.9619V38.0352H65.3906L65.5391 38.043C66.2717 38.1175 66.8438 38.736 66.8438 39.4883C66.8435 40.2404 66.2716 40.8591 65.5391 40.9336L65.3906 40.9414H63.8291V45.5811H65.3906L65.5391 45.5889C66.2717 45.6634 66.8438 46.2819 66.8438 47.0342C66.8435 47.7863 66.2716 48.405 65.5391 48.4795L65.3906 48.4873H63.8291V53.126H65.3906L65.5391 53.1338C66.2718 53.2083 66.8438 53.8268 66.8438 54.5791C66.8438 55.3314 66.2718 55.95 65.5391 56.0244L65.3906 56.0322H63.8291V59.1055C63.8288 62.408 61.1512 65.0859 57.8486 65.0859H54.7715V66.6514C54.7711 67.4536 54.1207 68.1045 53.3184 68.1045C52.5161 68.1045 51.8656 67.4536 51.8652 66.6514V65.0859H47.2285V66.6514C47.2281 67.4536 46.5777 68.1045 45.7754 68.1045C44.9731 68.1045 44.3226 67.4536 44.3223 66.6514V65.0859H39.6797V66.6514C39.6793 67.4536 39.0289 68.1045 38.2266 68.1045C37.4243 68.1045 36.7738 67.4536 36.7734 66.6514V65.0859H33.7051C30.4025 65.0859 27.7249 62.408 27.7246 59.1055V56.0322H26.1562C25.3537 56.0322 24.7031 55.3816 24.7031 54.5791C24.7031 53.7766 25.3537 53.126 26.1562 53.126H27.7246V48.4873H26.1562C25.3539 48.4873 24.7034 47.8365 24.7031 47.0342C24.7031 46.2316 25.3537 45.5811 26.1562 45.5811H27.7246V40.9414H26.1562C25.3539 40.9414 24.7034 40.2906 24.7031 39.4883C24.7031 38.6857 25.3537 38.0352 26.1562 38.0352H27.7246V34.9619C27.7246 31.6592 30.4023 28.9814 33.7051 28.9814H36.7734V27.417C36.7734 26.6145 37.424 25.9629 38.2266 25.9629C39.0291 25.9629 39.6797 26.6145 39.6797 27.417V28.9814H44.3223V27.417C44.3223 26.6145 44.9729 25.9629 45.7754 25.9629C46.5779 25.9629 47.2285 26.6145 47.2285 27.417V28.9814H51.8652V27.417C51.8652 26.6145 52.5158 25.9629 53.3184 25.9629ZM33.7051 31.8877C32.0074 31.8877 30.6309 33.2642 30.6309 34.9619V59.1055C30.6311 60.8029 32.0076 62.1797 33.7051 62.1797H57.8486C59.5462 62.1797 60.9226 60.8029 60.9229 59.1055V54.6348C60.9222 54.6163 60.9199 54.5978 60.9199 54.5791C60.9199 54.5604 60.9222 54.5419 60.9229 54.5234V47.0898C60.9221 47.0714 60.9199 47.0528 60.9199 47.0342C60.9199 47.0154 60.9221 46.9962 60.9229 46.9775V39.5439C60.9221 39.5255 60.9199 39.5069 60.9199 39.4883C60.9199 39.4695 60.9221 39.4503 60.9229 39.4316V34.9619C60.9229 33.2642 59.5463 31.8877 57.8486 31.8877H33.7051ZM52.626 37.5889C54.059 37.5889 55.2206 38.7506 55.2207 40.1836V53.8848C55.2206 55.3178 54.059 56.4794 52.626 56.4795H38.9248C37.4918 56.4794 36.3302 55.3178 36.3301 53.8848V40.1836C36.3302 38.7506 37.4918 37.5889 38.9248 37.5889H52.626ZM39.2363 53.5732H52.3145V40.4951H39.2363V53.5732Z" fill="#EB6C2D"/>
</svg>
