<svg width="56" height="55" viewBox="0 0 56 55" fill="none" xmlns="http://www.w3.org/2000/svg">
<path d="M26.1166 8.31467C29.2756 6.67687 32.2872 6.59759 34.6899 7.91916C35.0586 8.12202 35.4101 8.35678 35.7436 8.62131L39.5004 10.5002L40.3725 13.9905C40.5896 13.8408 40.8112 13.7019 41.0366 13.5744C41.06 13.5553 41.0855 13.5377 41.1127 13.5227C43.0545 12.4548 44.949 12.4509 46.393 13.4514C46.4522 13.4924 46.5086 13.5372 46.5658 13.5813L51.0004 16.0002L49.0004 22.5002L48.1469 23.1701C47.853 24.1423 47.4654 25.0918 46.9994 25.9846C45.9054 28.0807 44.3658 29.9101 42.5873 31.0031L42.228 31.2112L27.9428 39.0451L14.0004 50.0002L7.00042 48.5002L7.01311 48.4826C6.46407 48.3207 5.94643 48.0709 5.47014 47.7326C3.70563 46.4793 2.6262 44.1184 2.51018 41.0403V41.0393C2.39417 37.9258 3.27676 34.5878 4.78362 31.7014C6.28883 28.8182 8.44328 26.3374 10.9174 24.9797L10.9184 24.9787L11.1889 24.8362C12.387 24.2258 13.5569 23.9346 14.6528 23.9485C16.5036 17.4228 20.7075 11.2767 25.811 8.47776L26.1166 8.31467Z" fill="white"/>
<path d="M26.1166 8.31467L25.8865 7.87075L25.8813 7.87353L26.1166 8.31467ZM34.6899 7.91916L34.9309 7.48107L34.9308 7.48106L34.6899 7.91916ZM35.7436 8.62131L35.4328 9.01303C35.4599 9.03448 35.4891 9.05307 35.5199 9.0685L35.7436 8.62131ZM39.5004 10.5002L39.9855 10.379C39.9501 10.2374 39.8546 10.1183 39.7241 10.053L39.5004 10.5002ZM40.3725 13.9905L39.8874 14.1117C39.9272 14.2707 40.0424 14.4002 40.1958 14.4582C40.3492 14.5161 40.5212 14.4952 40.6562 14.4021L40.3725 13.9905ZM41.0366 13.5744L41.2827 14.0096C41.3076 13.9956 41.3313 13.9793 41.3534 13.9612L41.0366 13.5744ZM41.1127 13.5227L40.8718 13.0846L40.8718 13.0846L41.1127 13.5227ZM46.393 13.4514L46.6778 13.0404L46.6778 13.0404L46.393 13.4514ZM46.5658 13.5813L46.2607 13.9774C46.2815 13.9934 46.3034 14.0077 46.3264 14.0202L46.5658 13.5813ZM51.0004 16.0002L51.4783 16.1473C51.5482 15.9201 51.4485 15.6751 51.2398 15.5613L51.0004 16.0002ZM49.0004 22.5002L49.3091 22.8935C49.3893 22.8306 49.4483 22.7447 49.4783 22.6473L49.0004 22.5002ZM48.1469 23.1701L47.8382 22.7768C47.7574 22.8403 47.698 22.9271 47.6683 23.0255L48.1469 23.1701ZM46.9994 25.9846L47.4427 26.2159L47.4427 26.2159L46.9994 25.9846ZM42.5873 31.0031L42.8379 31.436L42.8491 31.4291L42.5873 31.0031ZM42.228 31.2112L42.4684 31.6497L42.4784 31.6439L42.228 31.2112ZM27.9428 39.0451L27.7024 38.6067C27.6783 38.6199 27.6554 38.635 27.6339 38.652L27.9428 39.0451ZM14.0004 50.0002L13.8957 50.4891C14.0409 50.5202 14.1925 50.4852 14.3093 50.3934L14.0004 50.0002ZM7.00042 48.5002L6.59508 48.2075C6.49618 48.3444 6.47311 48.522 6.53373 48.6797C6.59436 48.8373 6.73049 48.9537 6.89565 48.9891L7.00042 48.5002ZM7.01311 48.4826L7.41845 48.7754C7.51342 48.6439 7.5387 48.4745 7.48626 48.321C7.43382 48.1675 7.31017 48.049 7.1546 48.0031L7.01311 48.4826ZM5.47014 47.7326L5.1806 48.1403L5.18064 48.1403L5.47014 47.7326ZM2.51018 41.0403H2.01018C2.01018 41.0465 2.0103 41.0528 2.01054 41.0591L2.51018 41.0403ZM2.51018 41.0393H3.01018C3.01018 41.0331 3.01007 41.0269 3.00984 41.0207L2.51018 41.0393ZM4.78362 31.7014L4.34039 31.47L4.34039 31.47L4.78362 31.7014ZM10.9174 24.9797L11.1579 25.418C11.1994 25.3953 11.2375 25.3667 11.271 25.3333L10.9174 24.9797ZM10.9184 24.9787L10.6853 24.5364C10.6409 24.5598 10.6003 24.5897 10.5648 24.6252L10.9184 24.9787ZM11.1889 24.8362L10.9619 24.3906L10.9558 24.3938L11.1889 24.8362ZM14.6528 23.9485L14.6465 24.4484C14.8724 24.4513 15.0721 24.3023 15.1338 24.0849L14.6528 23.9485ZM25.811 8.47776L25.5756 8.03659L25.5705 8.03936L25.811 8.47776ZM26.1166 8.31467L26.3468 8.75856C29.3951 7.17814 32.2259 7.13454 34.4489 8.35726L34.6899 7.91916L34.9308 7.48106C32.3484 6.06064 29.1562 6.1756 25.8865 7.87078L26.1166 8.31467ZM34.6899 7.91916L34.4489 8.35725C34.7924 8.54622 35.1206 8.76533 35.4328 9.01303L35.7436 8.62131L36.0543 8.22959C35.6996 7.94822 35.3249 7.69783 34.9309 7.48107L34.6899 7.91916ZM35.7436 8.62131L35.5199 9.0685L39.2768 10.9474L39.5004 10.5002L39.7241 10.053L35.9672 8.17412L35.7436 8.62131ZM39.5004 10.5002L39.0153 10.6214L39.8874 14.1117L40.3725 13.9905L40.8576 13.8692L39.9855 10.379L39.5004 10.5002ZM40.3725 13.9905L40.6562 14.4021C40.8616 14.2606 41.0706 14.1296 41.2827 14.0096L41.0366 13.5744L40.7904 13.1392C40.5518 13.2742 40.3177 13.421 40.0888 13.5788L40.3725 13.9905ZM41.0366 13.5744L41.3534 13.9612L41.3537 13.9608L41.1127 13.5227L40.8718 13.0846C40.8154 13.1156 40.7647 13.1508 40.7197 13.1877L41.0366 13.5744ZM41.1127 13.5227L41.3537 13.9608C43.174 12.9597 44.8581 12.9962 46.1082 13.8624L46.393 13.4514L46.6778 13.0404C45.0399 11.9056 42.935 11.9499 40.8718 13.0846L41.1127 13.5227ZM46.393 13.4514L46.1082 13.8623C46.1539 13.894 46.1956 13.9272 46.2607 13.9774L46.5658 13.5813L46.871 13.1852C46.8217 13.1472 46.7505 13.0908 46.6778 13.0404L46.393 13.4514ZM46.5658 13.5813L46.3264 14.0202L50.761 16.4392L51.0004 16.0002L51.2398 15.5613L46.8053 13.1423L46.5658 13.5813ZM51.0004 16.0002L50.5225 15.8532L48.5225 22.3532L49.0004 22.5002L49.4783 22.6473L51.4783 16.1473L51.0004 16.0002ZM49.0004 22.5002L48.6917 22.1069L47.8382 22.7768L48.1469 23.1701L48.4556 23.5635L49.3091 22.8935L49.0004 22.5002ZM48.1469 23.1701L47.6683 23.0255C47.3835 23.9677 47.0077 24.8882 46.5562 25.7532L46.9994 25.9846L47.4427 26.2159C47.9232 25.2954 48.3226 24.3168 48.6255 23.3148L48.1469 23.1701ZM46.9994 25.9846L46.5562 25.7532C45.4921 27.792 44.0078 29.5432 42.3255 30.5772L42.5873 31.0031L42.8491 31.4291C44.7238 30.2769 46.3187 28.3694 47.4427 26.2159L46.9994 25.9846ZM42.5873 31.0031L42.3369 30.5704L41.9775 30.7784L42.228 31.2112L42.4784 31.6439L42.8378 31.4359L42.5873 31.0031ZM42.228 31.2112L41.9875 30.7727L27.7024 38.6067L27.9428 39.0451L28.1832 39.4835L42.4684 31.6496L42.228 31.2112ZM27.9428 39.0451L27.6339 38.652L13.6915 49.6071L14.0004 50.0002L14.3093 50.3934L28.2517 39.4383L27.9428 39.0451ZM14.0004 50.0002L14.1052 49.5113L7.10518 48.0113L7.00042 48.5002L6.89565 48.9891L13.8957 50.4891L14.0004 50.0002ZM7.00042 48.5002L7.40576 48.793L7.41845 48.7754L7.01311 48.4826L6.60777 48.1899L6.59508 48.2075L7.00042 48.5002ZM7.01311 48.4826L7.1546 48.0031C6.65823 47.8566 6.19065 47.6311 5.75965 47.325L5.47014 47.7326L5.18064 48.1403C5.70222 48.5107 6.26992 48.7847 6.87163 48.9622L7.01311 48.4826ZM5.47014 47.7326L5.75969 47.325C4.16412 46.1917 3.12228 44.0049 3.00983 41.0214L2.51018 41.0403L2.01054 41.0591C2.13013 44.2319 3.24714 46.7669 5.1806 48.1403L5.47014 47.7326ZM2.51018 41.0403H3.01018V41.0393H2.51018H2.01018V41.0403H2.51018ZM2.51018 41.0393L3.00984 41.0207C2.8976 38.0086 3.75286 34.7562 5.22686 31.9328L4.78362 31.7014L4.34039 31.47C2.80065 34.4193 1.89073 37.843 2.01053 41.0579L2.51018 41.0393ZM4.78362 31.7014L5.22685 31.9328C6.70082 29.1095 8.79411 26.7152 11.1579 25.418L10.9174 24.9797L10.6769 24.5414C8.09245 25.9596 5.87684 28.527 4.34039 31.47L4.78362 31.7014ZM10.9174 24.9797L11.271 25.3333L11.2719 25.3323L10.9184 24.9787L10.5648 24.6252L10.5639 24.6262L10.9174 24.9797ZM10.9184 24.9787L11.1515 25.4211L11.422 25.2785L11.1889 24.8362L10.9558 24.3938L10.6853 24.5364L10.9184 24.9787ZM11.1889 24.8362L11.4159 25.2817C12.5544 24.7017 13.6447 24.4358 14.6465 24.4484L14.6528 23.9485L14.6591 23.4485C13.4691 23.4335 12.2196 23.7499 10.9619 24.3906L11.1889 24.8362ZM14.6528 23.9485L15.1338 24.0849C16.9596 17.6474 21.0978 11.6329 26.0514 8.91615L25.811 8.47776L25.5705 8.03936C20.3172 10.9205 16.0476 17.1982 14.1717 23.812L14.6528 23.9485ZM25.811 8.47776L26.0463 8.91889L26.352 8.75581L26.1166 8.31467L25.8813 7.87353L25.5756 8.03662L25.811 8.47776Z" fill="#2C353D"/>
<path d="M47.0936 16.199C46.2349 16.672 45.4261 17.3313 44.6822 18.1196C43.5538 10.8052 38.1019 7.68067 31.7763 11.1492C26.7237 13.9201 22.5199 20.1214 20.7526 26.7001C19.5743 26.5997 18.2612 26.8959 16.8883 27.6508C12.1603 30.245 8.51565 37.2298 8.74032 43.2542C8.96499 49.2214 12.9042 52.0019 17.5673 49.5415L47.7177 33.0064C51.3573 31.0094 54.1681 25.6251 53.9934 20.9813C53.8187 16.3376 50.7232 14.1925 47.0836 16.1942H47.0886L47.0936 16.199Z" fill="white" stroke="#2C353D" stroke-linejoin="round"/>
</svg>
