<svg width="246" height="32" viewBox="0 0 246 32" fill="none" xmlns="http://www.w3.org/2000/svg">
<path d="M194.696 27.3959V4.50293H203.951C205.87 4.50293 207.461 4.80817 208.726 5.41865C210.012 6.02912 210.983 6.89034 211.637 8.00228C212.291 9.09242 212.618 10.3788 212.618 11.8614C212.618 13.4312 212.214 14.8048 211.408 15.9821C210.601 17.1377 209.369 17.9771 207.712 18.5003L213.272 27.3959H207.614L202.806 19.0236H199.569V27.3959H194.696ZM199.569 15.1645H203.003C204.812 15.1645 206.055 14.892 206.731 14.3469C207.407 13.78 207.745 12.9515 207.745 11.8614C207.745 10.7712 207.407 9.95363 206.731 9.40856C206.055 8.84169 204.812 8.55825 203.003 8.55825H199.569V15.1645Z" fill="#2C353D"/>
<path d="M173.354 27.455V4.56201H189.314V8.61733H178.26V13.7192H188.333V17.6437H178.26V23.3996H189.314V27.455H173.354Z" fill="#2C353D"/>
<path d="M150.483 27.1808V4.28784H160.262C162.834 4.28784 164.72 4.83291 165.92 5.92305C167.14 6.99139 167.751 8.48488 167.751 10.4035C167.751 11.5809 167.457 12.5947 166.868 13.445C166.301 14.2735 165.527 14.8731 164.546 15.2437C165.854 15.549 166.879 16.1704 167.62 17.1079C168.361 18.0236 168.732 19.2228 168.732 20.7053C168.732 22.0135 168.46 23.1582 167.914 24.1393C167.369 25.0986 166.508 25.8508 165.331 26.3959C164.154 26.9191 162.605 27.1808 160.687 27.1808H150.483ZM155.356 23.4525H159.804C161.33 23.4525 162.387 23.1909 162.976 22.6676C163.565 22.1443 163.859 21.3703 163.859 20.3456C163.859 19.3209 163.565 18.5251 162.976 17.9582C162.409 17.3695 161.341 17.0752 159.771 17.0752H155.356V23.4525ZM155.356 13.7394H159.281C160.611 13.7394 161.537 13.4777 162.06 12.9545C162.606 12.4312 162.878 11.7226 162.878 10.8287C162.878 9.91296 162.616 9.21527 162.093 8.73561C161.57 8.25595 160.643 8.01612 159.313 8.01612H155.356V13.7394Z" fill="#2C353D"/>
<path d="M138.892 27.1808V4.28784H143.765V27.1808H138.892Z" fill="#2C353D"/>
<path d="M116.863 27.1808V4.28784H132.529V8.34316H121.736V14.0991H131.547V18.0236H121.736V27.1808H116.863Z" fill="#2C353D"/>
<path d="M94.7336 27.1808V4.28784H110.693V8.34316H99.6393V13.445H109.712V17.3695H99.6393V23.1255H110.693V27.1808H94.7336Z" fill="#2C353D"/>
<path d="M77.8494 27.1808V8.34316H70.491V4.28784H90.0808V8.34316H82.7223V27.1808H77.8494Z" fill="#2C353D"/>
<path d="M60.4824 27.1808V4.28784H65.3553V27.1808H60.4824Z" fill="#2C353D"/>
<path d="M35.0991 27.2167V4.32373H39.972V13.4155H49.7833V4.32373H54.6562V27.2167H49.7833V17.4708H39.972V27.2167H35.0991Z" fill="#2C353D"/>
<path d="M5.88675 27.1808L0 4.28784H5.10185L8.66661 20.4437L13.0817 4.28784H17.6603L22.1734 20.5091L26.0325 4.28784H30.7419L24.8225 27.1808H19.9496L15.2074 10.8287L10.7597 27.1808H5.88675Z" fill="#2C353D"/>
<path d="M218.154 6.64637C218.154 3.39218 220.792 0.75415 224.046 0.75415H239.366C242.62 0.75415 245.258 3.39219 245.258 6.64637V25.3541C245.258 28.6083 242.62 31.2463 239.366 31.2463H224.046C220.792 31.2463 218.154 28.6083 218.154 25.3541V6.64637Z" fill="#EEEEEE"/>
<path fill-rule="evenodd" clip-rule="evenodd" d="M217.412 6.64644C217.412 2.98245 220.382 0.012207 224.046 0.012207H239.366C243.03 0.012207 246 2.98246 246 6.64645V25.3542C246 29.0182 243.03 31.9884 239.366 31.9884H224.046C220.382 31.9884 217.412 29.0182 217.412 25.3542V6.64644ZM224.046 1.49625C221.201 1.49625 218.896 3.80207 218.896 6.64644V25.3542C218.896 28.1986 221.201 30.5044 224.046 30.5044H239.366C242.21 30.5044 244.516 28.1986 244.516 25.3542V6.64645C244.516 3.80207 242.21 1.49625 239.366 1.49625H224.046Z" fill="#DADCDD"/>
<path d="M223.719 27.0957V23.7566H240.043V27.0957H223.719Z" fill="#2C353D"/>
</svg>
