<svg width="93" height="93" viewBox="0 0 93 93" fill="none" xmlns="http://www.w3.org/2000/svg">
<rect x="1" y="1" width="91" height="91" rx="22.25" fill="white" fill-opacity="0.86"/>
<rect x="1" y="1" width="91" height="91" rx="22.25" stroke="#E9EBF1" stroke-width="2"/>
<path d="M46 27V67M51.3557 31.2857C49.7394 32.2232 47.8873 32.7172 46 32.7143C44.1127 32.7172 42.2606 32.2232 40.6443 31.2857M40.6443 62.7143C42.2618 61.7795 44.1131 61.2857 46 61.2857C47.8869 61.2857 49.7382 61.7795 51.3557 62.7143M64 37L28 57M62.8197 43.6071C61.1693 42.7264 59.7991 41.4302 58.8558 39.8573C57.9124 38.2845 57.4317 36.4943 57.4649 34.6786M29.1803 50.3929C30.8307 51.2736 32.2009 52.5698 33.1442 54.1427C34.0876 55.7155 34.5683 57.5057 34.5351 59.3214M28 37L64 57M29.1803 43.6071C30.8307 42.7264 32.2009 41.4302 33.1442 39.8573C34.0876 38.2845 34.5683 36.4943 34.5351 34.6786M62.8197 50.3929C61.1693 51.2736 59.7991 52.5698 58.8558 54.1427C57.9124 55.7155 57.4317 57.5057 57.4649 59.3214" stroke="#EB6C2D" stroke-width="2.5" stroke-linecap="round" stroke-linejoin="round"/>
</svg>
