<svg width="93" height="94" viewBox="0 0 93 94" fill="none" xmlns="http://www.w3.org/2000/svg">
<rect x="1" y="1.4248" width="91" height="91" rx="22.25" fill="white" fill-opacity="0.86"/>
<rect x="1" y="1.4248" width="91" height="91" rx="22.25" stroke="#E9EBF1" stroke-width="2"/>
<path d="M46.3369 25.6963C51.1416 25.6963 55.0361 29.5909 55.0361 34.3955C55.0361 35.852 54.6757 37.2235 54.043 38.4297L60.0908 50.0674C64.5149 50.4768 67.9785 54.1976 67.9785 58.7285C67.9785 63.5331 64.0839 67.4276 59.2793 67.4277C54.4746 67.4277 50.5791 63.5332 50.5791 58.7285C50.5791 54.6209 53.4266 51.1801 57.2549 50.2676L52.2979 40.7275C50.7406 42.1941 48.6448 43.0957 46.3369 43.0957C43.9544 43.0957 41.7967 42.1364 40.2256 40.585L35.3887 50.2607C39.2321 51.1623 42.0947 54.6101 42.0947 58.7285C42.0947 63.5332 38.1992 67.4277 33.3945 67.4277C28.5899 67.4277 24.6953 63.5332 24.6953 58.7285C24.6953 54.2025 28.1512 50.4845 32.5684 50.0684L38.5068 38.1914C37.9497 37.0443 37.6367 35.7564 37.6367 34.3955C37.6367 29.5908 41.5322 25.6963 46.3369 25.6963ZM33.3945 52.6367C30.0304 52.6367 27.3027 55.3643 27.3027 58.7285C27.3028 62.0927 30.0304 64.8203 33.3945 64.8203C36.7587 64.8203 39.4863 62.0927 39.4863 58.7285C39.4863 55.3643 36.7587 52.6367 33.3945 52.6367ZM59.2793 52.6367C55.9151 52.6367 53.1875 55.3643 53.1875 58.7285C53.1875 62.0927 55.9151 64.8203 59.2793 64.8203C62.6434 64.8202 65.3701 62.0926 65.3701 58.7285C65.3701 55.3644 62.6434 52.6368 59.2793 52.6367ZM50.0342 60.0322H42.6387V57.4248H50.0342V60.0322ZM46.3369 28.3037C42.9727 28.3037 40.2451 31.0313 40.2451 34.3955C40.2451 37.7597 42.9727 40.4873 46.3369 40.4873C49.7011 40.4873 52.4287 37.7597 52.4287 34.3955C52.4287 31.0314 49.7011 28.3038 46.3369 28.3037Z" fill="#EB6C2D"/>
</svg>
