<svg width="93" height="94" viewBox="0 0 93 94" fill="none" xmlns="http://www.w3.org/2000/svg">
<rect x="1" y="1.4248" width="91" height="91" rx="22.25" fill="white" fill-opacity="0.86"/>
<rect x="1" y="1.4248" width="91" height="91" rx="22.25" stroke="#E9EBF1" stroke-width="2"/>
<path d="M46.999 26.6221C51.8733 26.6221 56.5475 28.5583 59.9941 32.0049C63.4408 35.4515 65.377 40.1258 65.377 45V55.625C65.377 58.318 63.4857 60.5675 60.959 61.1211C60.436 63.0203 58.7493 64.5579 56.6328 65.6162C54.0065 66.9293 50.5412 67.6289 47.001 67.6289C46.2399 67.6289 45.6233 67.012 45.623 66.251C45.623 65.4897 46.2397 64.873 47.001 64.873C50.2236 64.873 53.2446 64.2292 55.4004 63.1514C56.8084 62.4474 57.6243 61.6812 58.0342 60.9854C55.7647 60.26 54.1211 58.1353 54.1211 55.625V51.375C54.1211 48.2665 56.6406 45.7471 59.749 45.7471C60.7985 45.7471 61.7802 46.0351 62.6211 46.5352V45C62.6211 40.8569 60.9745 36.8837 58.0449 33.9541C55.1153 31.0245 51.1421 29.3779 46.999 29.3779C42.8559 29.3779 38.8827 31.0245 35.9531 33.9541C33.0235 36.8837 31.377 40.8569 31.377 45V46.5352C32.2178 46.0351 33.1996 45.7471 34.249 45.7471C37.3575 45.7471 39.877 48.2665 39.877 51.375V55.625C39.877 58.7335 37.3575 61.2529 34.249 61.2529C31.1406 61.2529 28.6211 58.7335 28.6211 55.625V45C28.6211 40.1258 30.5573 35.4515 34.0039 32.0049C37.4505 28.5583 42.1248 26.6221 46.999 26.6221ZM34.249 48.5029C32.6631 48.5029 31.377 49.789 31.377 51.375V55.625C31.377 57.211 32.6631 58.4971 34.249 58.4971C35.835 58.4971 37.1211 57.211 37.1211 55.625V51.375C37.1211 49.789 35.835 48.5029 34.249 48.5029ZM59.749 48.5029C58.1631 48.5029 56.877 49.789 56.877 51.375V55.625C56.877 57.211 58.1631 58.4971 59.749 58.4971C61.335 58.4971 62.6211 57.211 62.6211 55.625V51.375C62.6211 49.789 61.335 48.5029 59.749 48.5029Z" fill="#EB6C2D"/>
</svg>
