<svg width="93" height="93" viewBox="0 0 93 93" fill="none" xmlns="http://www.w3.org/2000/svg">
<rect x="1" y="1" width="91" height="91" rx="22.25" fill="white" fill-opacity="0.86"/>
<rect x="1" y="1" width="91" height="91" rx="22.25" stroke="#E9EBF1" stroke-width="2"/>
<path d="M31.1161 36.1161C30.628 36.6043 30.628 37.3957 31.1161 37.8839L39.0711 45.8388C39.5592 46.327 40.3507 46.327 40.8388 45.8388C41.327 45.3507 41.327 44.5592 40.8388 44.0711L33.7678 37L40.8388 29.9289C41.327 29.4408 41.327 28.6493 40.8388 28.1612C40.3507 27.673 39.5592 27.673 39.0711 28.1612L31.1161 36.1161ZM61.9394 38.25C62.6297 38.25 63.1894 37.6904 63.1894 37C63.1894 36.3096 62.6297 35.75 61.9394 35.75V38.25ZM32 37V38.25H61.9394V37V35.75H32V37Z" fill="#EB6C2D"/>
<path d="M62.8233 56.8839C63.3115 56.3957 63.3115 55.6043 62.8233 55.1161L54.8684 47.1612C54.3802 46.673 53.5888 46.673 53.1006 47.1612C52.6125 47.6493 52.6125 48.4408 53.1006 48.9289L60.1717 56L53.1006 63.0711C52.6125 63.5592 52.6125 64.3507 53.1006 64.8388C53.5888 65.327 54.3802 65.327 54.8684 64.8388L62.8233 56.8839ZM32.0001 54.75C31.3097 54.75 30.7501 55.3096 30.7501 56C30.7501 56.6904 31.3097 57.25 32.0001 57.25L32.0001 54.75ZM61.9395 56L61.9395 54.75L32.0001 54.75L32.0001 56L32.0001 57.25L61.9395 57.25L61.9395 56Z" fill="#EB6C2D"/>
</svg>
