<svg width="193" height="77" viewBox="0 0 193 77" fill="none" xmlns="http://www.w3.org/2000/svg">
<g clip-path="url(#clip0_5919_238)">
<path d="M191.133 1.85986H2.36719V75.1355H191.133V1.85986Z" fill="white"/>
<path d="M0.5 0V77H193V0H0.5ZM191.133 75.1401H2.36716V1.85986H191.133V75.1355V75.1401ZM93.1561 69.5046H92.2201V7.49537H93.1561V69.5046ZM115.043 25.5206C114.275 24.8867 113.232 24.565 111.907 24.565H107.639V36.1857H109.558V32.1024H111.907C113.232 32.1024 114.275 31.7901 115.043 31.1654C115.81 30.5408 116.194 29.6505 116.194 28.4992V28.1496C116.194 27.0309 115.81 26.1545 115.043 25.516V25.5206ZM114.28 28.5551C114.28 29.217 114.06 29.7065 113.62 30.0141C113.18 30.3217 112.595 30.4802 111.86 30.4802H109.558V26.2151H111.86C112.595 26.2151 113.18 26.369 113.62 26.6813C114.06 26.9889 114.28 27.4737 114.28 28.1263V28.5598V28.5551ZM119.713 31.9066C119.713 31.2773 119.82 30.7692 120.036 30.387C120.251 30.0048 120.536 29.7251 120.887 29.548C121.238 29.3708 121.613 29.2823 122.01 29.2823H122.862V27.5902H121.996C121.309 27.5902 120.77 27.7441 120.387 28.0564C120.003 28.364 119.703 28.7835 119.493 29.3009V27.6881H117.874V36.1903H119.708V31.9066H119.713ZM127.93 36.4047C128.721 36.4047 129.404 36.2556 129.98 35.9619C130.555 35.6683 130.995 35.2674 131.295 34.7593L129.961 33.897C129.76 34.2419 129.498 34.4983 129.17 34.6707C128.843 34.8432 128.431 34.9271 127.93 34.9271H127.682C127.027 34.9271 126.512 34.722 126.138 34.3118C125.768 33.9016 125.562 33.2817 125.53 32.452H131.58V31.4405C131.58 30.2239 131.243 29.2543 130.569 28.5365C129.896 27.8186 128.983 27.4551 127.827 27.4551H127.677C126.465 27.4551 125.506 27.828 124.795 28.5738C124.084 29.3196 123.728 30.3544 123.728 31.6689V32.2189C123.728 33.5567 124.074 34.5915 124.771 35.314C125.464 36.0412 126.437 36.4001 127.682 36.4001H127.93V36.4047ZM126.203 29.5153C126.578 29.1378 127.069 28.9513 127.677 28.9513H127.808C128.431 28.9513 128.918 29.1331 129.269 29.492C129.62 29.851 129.793 30.373 129.793 31.0582V31.1748H125.544C125.609 30.4429 125.829 29.8929 126.203 29.5153ZM134.332 36.1903H136.166V29.1984H138.749L138.965 27.6881H136.166V27.0076C136.166 26.5181 136.279 26.1545 136.499 25.9028C136.723 25.6558 137.083 25.5299 137.584 25.5299H138.969V23.987H137.519C136.396 23.987 135.586 24.2574 135.085 24.7934C134.585 25.3295 134.337 26.094 134.337 27.0775V27.6928H132.586V29.203H134.337V36.195L134.332 36.1903ZM143.864 36.4047C144.655 36.4047 145.338 36.2556 145.914 35.9619C146.494 35.6683 146.929 35.2674 147.229 34.7593L145.895 33.897C145.694 34.2419 145.432 34.4983 145.104 34.6707C144.777 34.8432 144.365 34.9271 143.864 34.9271H143.616C142.961 34.9271 142.446 34.722 142.072 34.3118C141.702 33.9016 141.496 33.2817 141.464 32.452H147.514V31.4405C147.514 30.2239 147.177 29.2543 146.508 28.5365C145.834 27.8186 144.922 27.4551 143.766 27.4551H143.616C142.404 27.4551 141.445 27.828 140.734 28.5738C140.022 29.3196 139.667 30.3544 139.667 31.6689V32.2189C139.667 33.5567 140.013 34.5915 140.71 35.314C141.403 36.0412 142.376 36.4001 143.621 36.4001H143.869L143.864 36.4047ZM142.137 29.5153C142.512 29.1378 143.003 28.9513 143.612 28.9513H143.743C144.365 28.9513 144.852 29.1331 145.203 29.492C145.554 29.851 145.727 30.373 145.727 31.0582V31.1748H141.478C141.543 30.4429 141.763 29.8929 142.137 29.5153ZM151.249 31.9066C151.249 31.2773 151.356 30.7692 151.572 30.387C151.787 30.0048 152.072 29.7251 152.423 29.548C152.774 29.3708 153.149 29.2823 153.546 29.2823H154.398V27.5902H153.532C152.844 27.5902 152.306 27.7441 151.922 28.0564C151.539 28.364 151.239 28.7835 151.029 29.3009V27.6881H149.41V36.1903H151.244V31.9066H151.249ZM160.898 27.5902H160.032C159.344 27.5902 158.806 27.7441 158.422 28.0564C158.039 28.3687 157.739 28.7835 157.529 29.3009V27.6881H155.91V36.1903H157.744V31.9066C157.744 31.2773 157.852 30.7692 158.067 30.387C158.282 30.0048 158.568 29.7251 158.918 29.548C159.269 29.3708 159.644 29.2823 160.042 29.2823H160.893V27.5902H160.898ZM165.868 27.4551H165.718C164.506 27.4551 163.547 27.828 162.835 28.5738C162.124 29.3196 161.768 30.3544 161.768 31.6689V32.2189C161.768 33.5567 162.115 34.5915 162.812 35.314C163.504 36.0412 164.478 36.4001 165.723 36.4001H165.971C166.761 36.4001 167.445 36.2509 168.02 35.9573C168.601 35.6636 169.036 35.2627 169.335 34.7546L168.002 33.8923C167.8 34.2372 167.538 34.4936 167.211 34.6661C166.883 34.8386 166.471 34.9225 165.971 34.9225H165.723C165.067 34.9225 164.553 34.7174 164.178 34.3072C163.809 33.897 163.603 33.277 163.57 32.4473H169.621V31.4358C169.621 30.2192 169.284 29.2497 168.61 28.5318C167.936 27.814 167.024 27.4504 165.868 27.4504V27.4551ZM167.833 31.1748H163.584C163.65 30.4429 163.869 29.8929 164.244 29.5153C164.618 29.1378 165.11 28.9513 165.718 28.9513H165.849C166.471 28.9513 166.958 29.1331 167.309 29.492C167.66 29.851 167.833 30.373 167.833 31.0582V31.1748ZM177.365 24.0709V28.7043C177.089 28.3081 176.729 28.0004 176.289 27.7813C175.849 27.5669 175.349 27.4551 174.782 27.4551H174.665C173.963 27.4551 173.341 27.6182 172.798 27.9445C172.255 28.2708 171.825 28.7462 171.516 29.3662C171.207 29.9861 171.048 30.7459 171.048 31.6409V32.2049C171.048 33.1139 171.202 33.8783 171.516 34.5029C171.825 35.1275 172.255 35.603 172.798 35.9246C173.341 36.2463 173.963 36.4047 174.665 36.4047H174.782C175.437 36.4047 175.999 36.2742 176.467 36.0132C176.935 35.7522 177.305 35.3886 177.585 34.9271V36.1903H179.2V24.0709H177.365ZM177.384 32.1909C177.384 32.8202 177.281 33.3283 177.075 33.7198C176.869 34.1067 176.603 34.3911 176.275 34.5729C175.948 34.7546 175.592 34.8479 175.218 34.8479H175.082C174.45 34.8479 173.921 34.6334 173.509 34.2093C173.093 33.7851 172.882 33.1232 172.882 32.2236V31.6409C172.882 30.7459 173.088 30.084 173.509 29.6645C173.926 29.245 174.45 29.0352 175.082 29.0352H175.218C175.597 29.0352 175.948 29.1285 176.275 29.3102C176.603 29.492 176.869 29.7764 177.075 30.1633C177.281 30.5502 177.384 31.0536 177.384 31.6735V32.1909ZM115.043 42.1288C114.275 41.4949 113.232 41.1733 111.907 41.1733H107.639V52.7939H109.558V48.7106H111.907C113.232 48.7106 114.275 48.3983 115.043 47.7737C115.81 47.149 116.194 46.2587 116.194 45.1074V44.7578C116.194 43.6391 115.81 42.7628 115.043 42.1242V42.1288ZM114.28 45.1587C114.28 45.8206 114.06 46.31 113.62 46.6177C113.18 46.9253 112.595 47.0838 111.86 47.0838H109.558V42.8187H111.86C112.595 42.8187 113.18 42.9725 113.62 43.2848C114.06 43.5925 114.28 44.0772 114.28 44.7298V45.1633V45.1587ZM120.827 44.0633H120.574C119.741 44.0633 119.034 44.2311 118.449 44.5713C117.864 44.907 117.448 45.3731 117.19 45.9557L118.608 46.6876C118.81 46.2774 119.067 45.9884 119.385 45.8159C119.703 45.6434 120.097 45.5595 120.579 45.5595H120.761C121.893 45.5595 122.46 46.1888 122.46 47.452V47.5173L119.441 47.9135C118.594 48.0254 117.953 48.3004 117.518 48.7432C117.078 49.186 116.858 49.7547 116.858 50.4539C116.858 51.2603 117.106 51.8896 117.607 52.3371C118.108 52.7845 118.814 53.0083 119.722 53.0083H119.839C120.471 53.0083 121.037 52.8731 121.538 52.6028C122.039 52.3324 122.418 51.9642 122.67 51.498V52.7939H124.289V47.4147C124.289 46.3193 123.995 45.485 123.405 44.9163C122.815 44.3476 121.954 44.0633 120.822 44.0633H120.827ZM122.464 49.3259C122.464 50.0018 122.268 50.5425 121.879 50.9433C121.491 51.3489 120.967 51.5493 120.312 51.5493H120.143C119.666 51.5493 119.296 51.4421 119.034 51.223C118.772 51.0086 118.641 50.7103 118.641 50.3327C118.641 49.9551 118.753 49.6801 118.983 49.503C119.212 49.3259 119.615 49.2 120.19 49.1208L122.46 48.7898V49.3212L122.464 49.3259ZM129.119 44.6599C128.735 44.9675 128.436 45.3871 128.225 45.9045V44.2917H126.606V52.7939H128.44V48.5101C128.44 47.8809 128.548 47.3728 128.763 46.9906C128.978 46.6083 129.264 46.3287 129.615 46.1515C129.966 45.9744 130.34 45.8858 130.738 45.8858H131.59V44.1938H130.724C130.036 44.1938 129.498 44.3476 129.114 44.6599H129.119ZM138.777 45.8066L138.993 44.2963H136.208V41.7885H134.374V44.2963H132.572V45.8066H134.374V50.0903C134.374 50.9853 134.599 51.6752 135.057 52.1553C135.511 52.6354 136.279 52.8778 137.36 52.8778H138.993V51.3349H137.542C137.098 51.3349 136.765 51.2323 136.541 51.0272C136.316 50.8221 136.208 50.4819 136.208 50.0064V45.8066H138.777ZM145.432 44.0633H145.263C144.632 44.0633 144.084 44.1984 143.621 44.4688C143.158 44.7391 142.797 45.1074 142.531 45.5735V44.2963H140.911V52.7985H142.746V48.1186C142.746 47.5546 142.844 47.0884 143.045 46.7249C143.246 46.3613 143.509 46.0909 143.827 45.9091C144.15 45.732 144.487 45.6434 144.842 45.6434H144.959C145.568 45.6434 146.026 45.8299 146.326 46.1981C146.625 46.571 146.775 47.1024 146.775 47.8016V52.7985H148.609V47.5499C148.609 46.4219 148.319 45.5595 147.744 44.9582C147.163 44.3616 146.396 44.0633 145.427 44.0633H145.432ZM154.566 44.0633H154.417C153.205 44.0633 152.245 44.4362 151.534 45.182C150.823 45.9278 150.467 46.9626 150.467 48.2771V48.8271C150.467 50.1649 150.813 51.1997 151.511 51.9222C152.203 52.6494 153.177 53.0083 154.421 53.0083H154.669C155.46 53.0083 156.143 52.8591 156.719 52.5655C157.299 52.2718 157.735 51.8709 158.034 51.3629L156.7 50.5005C156.499 50.8454 156.237 51.1018 155.91 51.2743C155.582 51.4468 155.17 51.5307 154.669 51.5307H154.421C153.766 51.5307 153.251 51.3256 152.877 50.9154C152.507 50.5052 152.302 49.8852 152.269 49.0555H158.319V48.044C158.319 46.8274 157.983 45.8579 157.309 45.14C156.635 44.4222 155.722 44.0586 154.566 44.0586V44.0633ZM156.532 47.783H152.283C152.348 47.0512 152.568 46.5011 152.943 46.1236C153.317 45.746 153.808 45.5595 154.417 45.5595H154.548C155.17 45.5595 155.657 45.7413 156.008 46.1002C156.359 46.4592 156.532 46.9812 156.532 47.6664V47.783ZM162.723 44.6599C162.339 44.9675 162.04 45.3871 161.829 45.9045V44.2917H160.21V52.7939H162.044V48.5101C162.044 47.8809 162.152 47.3728 162.367 46.9906C162.583 46.6083 162.868 46.3287 163.219 46.1515C163.57 45.9744 163.944 45.8858 164.342 45.8858H165.194V44.1938H164.328C163.64 44.1938 163.102 44.3476 162.718 44.6599H162.723Z" fill="black"/>
<path d="M40.6789 51.1297V62.9554H44.0342V51.1297H40.6789ZM14.3047 51.1157V62.9601H17.688V53.9684H20.3086C21.179 53.9684 21.7967 54.1829 22.2132 54.6303C22.742 55.1944 22.9619 56.0986 22.9619 57.7627V62.9647H26.2377V56.4203C26.2377 51.7497 23.2474 51.1204 20.3273 51.1204H14.3047M46.0792 51.1297V62.9554H51.5169C54.4135 62.9554 55.3588 62.4753 56.3836 61.3985C57.109 60.6434 57.5723 58.984 57.5723 57.1707C57.5723 55.5067 57.1792 54.0244 56.4866 53.1014C55.2465 51.4513 53.4542 51.125 50.7822 51.125H46.0745L46.0792 51.1297ZM49.4064 53.7074H50.8477C52.9395 53.7074 54.2919 54.6443 54.2919 57.0682C54.2919 59.4921 52.9395 60.4337 50.8477 60.4337H49.4064V53.7074ZM35.8449 51.1297L33.0465 60.5036L30.3651 51.1297H26.7477L30.5757 62.9554H35.4097L39.2703 51.1297H35.8496H35.8449ZM59.1353 62.9554H62.4905V51.1297H59.1353V62.9554ZM68.5319 51.1344L63.8476 62.9508H67.1561L67.8955 60.8625H73.4361L74.138 62.9508H77.7273L73.0103 51.1344H68.5319ZM70.7079 53.2925L72.7388 58.8302H68.6114L70.7079 53.2925Z" fill="black"/>
<path d="M36.2473 23.4276V20.5842C36.5234 20.5656 36.8042 20.5516 37.0896 20.5423C44.8905 20.2999 50.01 27.2173 50.01 27.2173C50.01 27.2173 44.4834 34.8665 38.5543 34.8665C37.7026 34.8665 36.9352 34.7313 36.2473 34.4982V25.8841C39.2843 26.2477 39.8927 27.5855 41.7224 30.6154L45.7843 27.2033C45.7843 27.2033 42.8221 23.3297 37.8243 23.3297C37.2815 23.3297 36.762 23.367 36.252 23.423M36.2473 14.0444V18.2862C36.5281 18.2629 36.8088 18.2443 37.0896 18.2349C47.9369 17.8714 55.0031 27.0961 55.0031 27.0961C55.0031 27.0961 46.884 36.9268 38.428 36.9268C37.6512 36.9268 36.9258 36.8568 36.2473 36.7356V39.36C36.8322 39.4345 37.4359 39.4765 38.063 39.4765C45.9341 39.4765 51.6244 35.4724 57.137 30.7365C58.0495 31.4637 61.7932 33.2397 62.5607 34.0134C57.3195 38.3811 45.1058 41.905 38.1846 41.905C37.5155 41.905 36.8743 41.8631 36.2473 41.8025V45.4896H66.1593V14.0444H36.2473ZM36.2473 34.5029V36.7403C28.9658 35.4491 26.9489 27.9118 26.9489 27.9118C26.9489 27.9118 30.4446 24.0569 36.2473 23.4276V25.8841H36.2379C33.1915 25.5206 30.8143 28.3546 30.8143 28.3546C30.8143 28.3546 32.148 33.1278 36.252 34.4982M23.3175 27.5855C23.3175 27.5855 27.6321 21.2461 36.2473 20.5889V18.2909C26.7056 19.0553 18.4414 27.1007 18.4414 27.1007C18.4414 27.1007 23.121 40.5765 36.2473 41.8118V39.3646C26.6167 38.1573 23.3175 27.5855 23.3175 27.5855Z" fill="#76B900"/>
</g>
<defs>
<clipPath id="clip0_5919_238">
<rect width="192.5" height="77" fill="white" transform="translate(0.5)"/>
</clipPath>
</defs>
</svg>
