<svg width="55" height="55" viewBox="0 0 55 55" fill="none" xmlns="http://www.w3.org/2000/svg">
<path d="M28 3.87988L48 15.4289V19.7919L43.824 22.2219L48 24.2399V28.7739L43.824 31.2209L48 33.5659V38.2179L28 50.0749L8 38.2169V33.5649L12.176 31.2209L8 28.7739V24.2399L12.176 22.2209L8 19.7909V15.4299L28 3.87988Z" fill="white"/>
<path d="M48 15.4289L28 3.87988L8 15.4289M48 15.4289L28 26.6689M48 15.4289V19.7919L43.824 22.2219M8 15.4289L28 26.6679V31.4249L12.176 22.2219M8 15.4289V19.7919L12.176 22.2219M43.824 22.2219L28 31.4259M43.824 22.2219L48 24.2409M28 50.0739L48 38.2159V33.5639M28 50.0739L8 38.2169V33.5649M28 50.0739V45.5079M8 33.5649L28 45.5079M8 33.5649L12.176 31.2209M28 45.5079L48 33.5649L43.824 31.2209M12.176 22.2219L8 24.2409M28 36.1309L48 24.2409M28 36.1309L8 24.2409M28 36.1309V40.8029L12.176 31.2209M48 24.2409V28.7739L43.824 31.2209M8 24.2409V28.7739L12.176 31.2209M43.824 31.2209L28 40.8019" stroke="#18181B" stroke-linecap="round" stroke-linejoin="round"/>
</svg>
